<svg width="130" height="130" fill="none" xmlns="http://www.w3.org/2000/svg"><g filter="url(#a)"><circle cx="65" cy="61" r="61" fill="#FFFEFE"/></g><path d="M104 52.483c0 44.417-39 57.85-39 57.85S26 96.9 26 52.483c0-5.416.433-9.966.867-13.65.65-5.416 4.333-9.75 9.533-11.05 6.717-1.95 17.333-4.116 28.6-4.116 11.267 0 21.883 2.166 28.817 4.116 5.2 1.3 8.883 5.85 9.533 11.05.217 3.684.65 8.45.65 13.65Z" fill="#5D4037"/><path d="M65 30.167c10.617 0 20.583 2.166 27.083 3.9 2.6.65 4.334 2.816 4.767 5.633.433 4.117.65 8.45.65 12.783 0 33.8-24.917 47.45-32.5 50.7-7.583-3.466-32.5-17.116-32.5-50.7 0-4.333.217-8.666.65-12.783.217-2.817 2.167-4.983 4.767-5.633 6.5-1.734 16.466-3.9 27.083-3.9Zm0-6.5c-11.267 0-21.883 2.166-28.817 4.116-4.983 1.3-8.883 5.85-9.316 11.05-.434 3.684-.867 8.45-.867 13.65 0 44.417 39 57.85 39 57.85s39-13.433 39-57.85c0-5.416-.433-9.966-.867-13.65-.65-5.416-4.333-9.75-9.533-11.05-6.717-1.95-17.333-4.116-28.6-4.116Z" fill="#4CAF50"/><path d="M62.834 75.667h4.333V93h-4.334V75.667Z" fill="#DCEDC8"/><path d="M65 36.667S52 47.5 52 64.833C52 76.1 59.15 83.25 62.833 86.5L65 80l2.167 6.5C70.85 83.25 78 76.1 78 64.833 78 47.5 65 36.667 65 36.667Z" fill="#4CAF50"/><path d="M65 36.667S52 47.5 52 64.833C52 76.1 59.15 83.25 62.833 86.5L65 80V36.667Z" fill="#81C784"/><defs><filter id="a" x="0" y="0" width="130" height="130" filterUnits="userSpaceOnUse" color-interpolation-filters="sRGB"><feFlood flood-opacity="0" result="BackgroundImageFix"/><feColorMatrix in="SourceAlpha" values="0 0 0 0 0 0 0 0 0 0 0 0 0 0 0 0 0 0 127 0" result="hardAlpha"/><feOffset dy="4"/><feGaussianBlur stdDeviation="2"/><feComposite in2="hardAlpha" operator="out"/><feColorMatrix values="0 0 0 0 0 0 0 0 0 0 0 0 0 0 0 0 0 0 0.25 0"/><feBlend in2="BackgroundImageFix" result="effect1_dropShadow_51_47"/><feBlend in="SourceGraphic" in2="effect1_dropShadow_51_47" result="shape"/></filter></defs></svg>