<svg width="130" height="130" fill="none" xmlns="http://www.w3.org/2000/svg"><g filter="url(#a)"><circle cx="65" cy="61" r="61" fill="#FFFEFE"/></g><path d="m51.275 53.431-10.631 5.883A1.22 1.22 0 0 0 40 60.38v11.77c0 .44.245.845.644 1.066l10.634 5.887a1.34 1.34 0 0 0 1.284 0l10.632-5.887c.395-.221.64-.626.64-1.066V60.38c0-.44-.245-.846-.644-1.067l-10.63-5.882a1.33 1.33 0 0 0-.643-.165c-.224 0-.445.055-.644.165h.002Zm54.702 10.597-1.772.98a.201.201 0 0 0-.106.177v1.963c0 .074.041.141.106.178l1.772.981a.223.223 0 0 0 .215 0l1.772-.981a.205.205 0 0 0 .106-.178v-1.963a.203.203 0 0 0-.108-.178l-1.773-.979a.203.203 0 0 0-.106-.028.208.208 0 0 0-.106.028Z" fill="#388E3C"/><path d="m91.46 40.955-5.176-2.888a.528.528 0 0 0-.782.46L85.5 55.971l-4.773-2.64a1.33 1.33 0 0 0-.644-.165c-.22 0-.444.054-.643.164h.002L68.81 59.214a1.22 1.22 0 0 0-.644 1.064v11.771c0 .44.245.845.644 1.066l10.634 5.887a1.34 1.34 0 0 0 1.285 0l10.632-5.887c.394-.219.639-.626.639-1.066V41.874c0-.381-.208-.732-.54-.919Zm-6.25 28.37-4.832 2.676c-.18.1-.403.1-.583 0l-4.834-2.675a.553.553 0 0 1-.294-.486v-5.35c0-.2.11-.384.292-.486l4.834-2.673h-.002a.604.604 0 0 1 .292-.074.63.63 0 0 1 .293.074l4.831 2.673a.561.561 0 0 1 .293.488v5.352c0 .197-.11.383-.29.483Z" fill="#37474F"/><path d="M51.275 53.431 40 72.151c0 .44.245.845.644 1.066l10.634 5.887a1.34 1.34 0 0 0 1.284 0L63.833 60.38c0-.44-.244-.846-.643-1.067l-10.63-5.882a1.33 1.33 0 0 0-.643-.165c-.224 0-.445.055-.644.165" fill="#2E7D32"/><path d="m51.275 53.431-10.631 5.883A1.22 1.22 0 0 0 40 60.38l11.275 18.724a1.34 1.34 0 0 0 1.285 0l10.632-5.887c.397-.221.641-.626.641-1.066L52.56 53.431a1.33 1.33 0 0 0-.643-.165c-.224 0-.445.055-.644.165" fill="#4CAF50"/><path d="m117.356 59.214-10.629-5.883a1.33 1.33 0 0 0-1.287 0h.002L94.81 59.214a1.243 1.243 0 0 0-.643 1.09v11.724c0 .452.247.87.643 1.09l10.634 5.886c.399.221.886.221 1.285 0l4.903-2.715a.65.65 0 0 0-.004-1.14l-10.669-5.821a.57.57 0 0 1-.292-.494V63.49c0-.2.108-.384.281-.479l4.843-2.678h-.002a.602.602 0 0 1 .292-.074c.102 0 .202.026.293.074l4.842 2.68c.174.095.282.28.282.479v4.36a.523.523 0 0 0 .786.45l5.196-3.018c.321-.186.52-.531.52-.904v-4.073c0-.457-.247-.875-.644-1.094Zm-80.166 0L26.56 53.33a1.33 1.33 0 0 0-1.287 0h.002l-10.631 5.883a1.243 1.243 0 0 0-.644 1.09v16.174a.522.522 0 0 0 .787.45l5.195-3.018c.32-.186.518-.53.518-.903v-9.518c0-.2.108-.384.282-.48l4.842-2.677a.604.604 0 0 1 .293-.074.63.63 0 0 1 .292.074l4.843 2.68c.173.095.281.28.281.479v9.518c0 .373.198.717.52.903l5.196 3.019a.532.532 0 0 0 .524.002.531.531 0 0 0 .26-.455V60.306c0-.455-.247-.873-.643-1.092Z" fill="#37474F"/><defs><filter id="a" x="0" y="0" width="130" height="130" filterUnits="userSpaceOnUse" color-interpolation-filters="sRGB"><feFlood flood-opacity="0" result="BackgroundImageFix"/><feColorMatrix in="SourceAlpha" values="0 0 0 0 0 0 0 0 0 0 0 0 0 0 0 0 0 0 127 0" result="hardAlpha"/><feOffset dy="4"/><feGaussianBlur stdDeviation="2"/><feComposite in2="hardAlpha" operator="out"/><feColorMatrix values="0 0 0 0 0 0 0 0 0 0 0 0 0 0 0 0 0 0 0.25 0"/><feBlend in2="BackgroundImageFix" result="effect1_dropShadow_51_45"/><feBlend in="SourceGraphic" in2="effect1_dropShadow_51_45" result="shape"/></filter></defs></svg>